├â┼╕├â┼╕├â┼╕├â┼╕├â┼╕├â┼╕├â┼╕├â┼╕├â┼╕├â┼╕├â┼╕├â┼╕├â┼╕├â┼╕├â┼╕├â┼╕├â┼╕├â┼╕├â┼╕├â┼╕├â┼╕├â┼╕├â┼╕├â┼╕├â┼╕├â┼╕├â┼╕├â┼╕├â┼╕├â┼╕├â┼╕├â┼╕├â┼╕├â┼╕├â┼╕├â┼╕├â┼╕├â┼╕├â┼╕├â┼╕├â┼╕├â┼╕├â┼╕├â┼╕├â┼╕├â┼╕├â┼╕├â┼╕├â┼╕├â┼╕├â┼╕├â┼╕├â┼╕├â┼╕├â┼╕├â┼╕├â┼╕├â┼╕├â┼╕├â┼╕├â┼╕├â┼╕├â┼╕├â┼╕├â┼╕├â┼╕├â┼╕├â┼╕├â┼╕├â┼╕

             ├âΓÇ║├é┬░├é┬░├é┬░├é┬░├é┬░├é┬░├é┬░├é┬░├é┬░├é┬░├é┬░├é┬░├é┬░├é┬░├é┬░├é┬░├é┬░├é┬░├é┬░├é┬░├é┬░├é┬░├é┬░├é┬░├é┬░├é┬░├é┬░├é┬░├é┬░├é┬░├é┬░├é┬░├é┬░├é┬░├é┬░├é┬░├é┬░├é┬░├é┬░├é┬░├é┬░├é┬░├é┬░├âΓÇ║
            ├âΓÇ║├âΓÇ║ Bring It On All Or Nothing[2009]DvDrip-LW ├âΓÇ║├âΓÇ║
             ├âΓÇ║├é┬░├é┬░├é┬░├é┬░├é┬░├é┬░├é┬░├é┬░├é┬░├é┬░├é┬░├é┬░├é┬░├é┬░├é┬░├é┬░├é┬░├é┬░├é┬░├é┬░├é┬░├é┬░├é┬░├é┬░├é┬░├é┬░├é┬░├é┬░├é┬░├é┬░├é┬░├é┬░├é┬░├é┬░├é┬░├é┬░├é┬░├é┬░├é┬░├é┬░├é┬░├é┬░├é┬░├âΓÇ║

File Name    : Bring It On All Or Nothing[2009]DvDrip-LW
Type         : Movie
Format       : AVI
File Size    : 701 MB
Duration     : 01:38:50
Language     : English
Source       : DvD
Subtitles    : None
Genre        : Comedy
IMDB Link    : http://www.imdb.com/title/tt0490822/
IMDB Rating  : 5.6/10
IMDB Votes   : 5,382 Votes
     ├â┼ô├â┼ô├â┼ô├â┼ô├â┼ô├â┼ô├â┼ô├â┼ô├â┼ô├â┼ô├â┼ô├â┼ô├â┼ô├â┼ô├â┼ô├â┼ô├â┼ô├â┼ô├â┼ô├â┼ô├â┼ô├â┼ô├â┼ô├â┼ô├â┼ô├â┼ô├â┼ô├â┼ô├â┼ô├â┼ô├â┼ô├â┼ô├â┼ô├â┼ô├â┼ô├â┼ô├â┼ô├â┼ô├â┼ô├â┼ô├â┼ô├â┼ô├â┼ô├â┼ô├â┼ô├â┼ô├â┼ô├â┼ô├â┼ô├â┼ô├â┼ô├â┼ô├â┼ô├â┼ô├â┼ô├â┼ô├â┼ô├â┼ô├â┼ô├â┼ô├â┼ô├â┼ô├â┼ô├â┼ô├â┼ô├â┼ô├â┼ô├â┼ô├â┼ô├â┼ô
 
                        ├âΓÇ║├é┬░├é┬░├é┬░├é┬░├é┬░├é┬░├é┬░├é┬░├é┬░├é┬░├é┬░├é┬░├é┬░├é┬░├é┬░├é┬░├é┬░├é┬░├é┬░├é┬░├é┬░├é┬░├é┬░├é┬░├âΓÇ║
                       ├âΓÇ║├âΓÇ║       Video Info       ├âΓÇ║├âΓÇ║
                        ├âΓÇ║├é┬░├é┬░├é┬░├é┬░├é┬░├é┬░├é┬░├é┬░├é┬░├é┬░├é┬░├é┬░├é┬░├é┬░├é┬░├é┬░├é┬░├é┬░├é┬░├é┬░├é┬░├é┬░├é┬░├é┬░├âΓÇ║

Format                           : MPEG-4 Visual
Format profile                   : Streaming Video@L1
Format settings, BVOP            : Yes
Format settings, QPel            : No
Format settings, GMC             : No warppoints
Format settings, Matrix          : Custom
Codec ID                         : XVID
Codec ID/Hint                    : XviD
Duration                         : 1h 38mn
Bit rate                         : 873 Kbps
Width                            : 608 pixels
Height                           : 352 pixels
Display aspect ratio             : 16/9
Frame rate                       : 23.976 fps
Resolution                       : 24 bits
Colorimetry                      : 4:2:0
Scan type                        : Progressive
Bits/(Pixel*Frame)               : 0.170
Stream size                      : 617 MiB (88%)
Writing library                  : XviD 1.2.1
     ├â┼ô├â┼ô├â┼ô├â┼ô├â┼ô├â┼ô├â┼ô├â┼ô├â┼ô├â┼ô├â┼ô├â┼ô├â┼ô├â┼ô├â┼ô├â┼ô├â┼ô├â┼ô├â┼ô├â┼ô├â┼ô├â┼ô├â┼ô├â┼ô├â┼ô├â┼ô├â┼ô├â┼ô├â┼ô├â┼ô├â┼ô├â┼ô├â┼ô├â┼ô├â┼ô├â┼ô├â┼ô├â┼ô├â┼ô├â┼ô├â┼ô├â┼ô├â┼ô├â┼ô├â┼ô├â┼ô├â┼ô├â┼ô├â┼ô├â┼ô├â┼ô├â┼ô├â┼ô├â┼ô├â┼ô├â┼ô├â┼ô├â┼ô├â┼ô├â┼ô├â┼ô├â┼ô├â┼ô├â┼ô├â┼ô├â┼ô├â┼ô├â┼ô├â┼ô├â┼ô

                         ├âΓÇ║├é┬░├é┬░├é┬░├é┬░├é┬░├é┬░├é┬░├é┬░├é┬░├é┬░├é┬░├é┬░├é┬░├é┬░├é┬░├é┬░├é┬░├é┬░├é┬░├é┬░├é┬░├é┬░├é┬░├é┬░├âΓÇ║
                        ├âΓÇ║├âΓÇ║      Sound Info        ├âΓÇ║├âΓÇ║
                         ├âΓÇ║├é┬░├é┬░├é┬░├é┬░├é┬░├é┬░├é┬░├é┬░├é┬░├é┬░├é┬░├é┬░├é┬░├é┬░├é┬░├é┬░├é┬░├é┬░├é┬░├é┬░├é┬░├é┬░├é┬░├é┬░├âΓÇ║

Format                           : MPEG Audio
Format version                   : Version 1
Format profile                   : Layer 3
Codec ID                         : 55
Codec ID/Hint                    : MP3
Duration                         : 1h 38mn
Bit rate mode                    : Constant
Bit rate                         : 112 Kbps
Minimum bit rate                 : 112 Kbps
Channel(s)                       : 2 channels
Sampling rate                    : 44.1 KHz
Resolution                       : 16 bits
Stream size                      : 79.2 MiB (11%)
Alignment                        : Split accross interleaves
Interleave, duration             : 83 ms (2.00 video frames)
Interleave, preload duration     : 500 ms
Writing library                  : LAME3.98r
Encoding settings                : CBR
    ├â┼ô├â┼ô├â┼ô├â┼ô├â┼ô├â┼ô├â┼ô├â┼ô├â┼ô├â┼ô├â┼ô├â┼ô├â┼ô├â┼ô├â┼ô├â┼ô├â┼ô├â┼ô├â┼ô├â┼ô├â┼ô├â┼ô├â┼ô├â┼ô├â┼ô├â┼ô├â┼ô├â┼ô├â┼ô├â┼ô├â┼ô├â┼ô├â┼ô├â┼ô├â┼ô├â┼ô├â┼ô├â┼ô├â┼ô├â┼ô├â┼ô├â┼ô├â┼ô├â┼ô├â┼ô├â┼ô├â┼ô├â┼ô├â┼ô├â┼ô├â┼ô├â┼ô├â┼ô├â┼ô├â┼ô├â┼ô├â┼ô├â┼ô├â┼ô├â┼ô├â┼ô├â┼ô├â┼ô├â┼ô├â┼ô├â┼ô├â┼ô├â┼ô├â┼ô├â┼ô

                          ├âΓÇ║├é┬░├é┬░├é┬░├é┬░├é┬░├é┬░├é┬░├é┬░├é┬░├é┬░├é┬░├é┬░├é┬░├é┬░├é┬░├é┬░├é┬░├é┬░├é┬░├é┬░├é┬░├é┬░├é┬░├é┬░├âΓÇ║
                         ├âΓÇ║├âΓÇ║          Plot          ├âΓÇ║├âΓÇ║
                          ├âΓÇ║├é┬░├é┬░├é┬░├é┬░├é┬░├é┬░├é┬░├é┬░├é┬░├é┬░├é┬░├é┬░├é┬░├é┬░├é┬░├é┬░├é┬░├é┬░├é┬░├é┬░├é┬░├é┬░├é┬░├é┬░├âΓÇ║

As cheerleading captain at her elite school, 
Britney (Hayden Panettiere) makes plans for her 
squad to earn a coveted spot in singing sensation 
Rihanna's upcoming video. But when her family 
moves across town to urban Crenshaw Heights, 
Britney's plans are quashed. Now, she must face 
off against her new school's squad captain, the 
catty Camille (Solange Knowles), if she's going 
to win a spot on the team -- and a chance to cheer 
in Rihanna's video.

Starring: Hayden Panettiere, Solange Knowles

Director: Steve Rash
    ├â┼ô├â┼ô├â┼ô├â┼ô├â┼ô├â┼ô├â┼ô├â┼ô├â┼ô├â┼ô├â┼ô├â┼ô├â┼ô├â┼ô├â┼ô├â┼ô├â┼ô├â┼ô├â┼ô├â┼ô├â┼ô├â┼ô├â┼ô├â┼ô├â┼ô├â┼ô├â┼ô├â┼ô├â┼ô├â┼ô├â┼ô├â┼ô├â┼ô├â┼ô├â┼ô├â┼ô├â┼ô├â┼ô├â┼ô├â┼ô├â┼ô├â┼ô├â┼ô├â┼ô├â┼ô├â┼ô├â┼ô├â┼ô├â┼ô├â┼ô├â┼ô├â┼ô├â┼ô├â┼ô├â┼ô├â┼ô├â┼ô├â┼ô├â┼ô├â┼ô├â┼ô├â┼ô├â┼ô├â┼ô├â┼ô├â┼ô├â┼ô├â┼ô├â┼ô├â┼ô 
http://bit-byte.forums-free.com/